<svg height="20" viewBox="0 0 12 12" width="20" xmlns="http://www.w3.org/2000/svg"><path d="m28.3079918 29.0773231c0-.8899416-.3161748-1.6506563-.9485243-2.2821444-.6323496-.631488-1.3930644-.9476628-2.2821444-.9485243s-1.6502256.3153132-2.2834367.9485243c-.633211.6332111-.948955 1.3939259-.947232 2.2821444s.317467 1.6489333.947232 2.2821444c.6297651.633211 1.3909106.9493858 2.2834367.9485243s1.6532409-.3170363 2.2821444-.9485243c.6289035-.6314881.9450783-1.3922029.9485243-2.2821444zm3.6920082 5.9999979c0 .2498384-.0913202.4660778-.2739607.6487183s-.3993107.2739607-.6500106.2739607c-.259315 0-.4755544-.0913202-.6487182-.2739607l-2.4734-2.4669386c-.8606501.596166-1.8195126.8942491-2.8765874.8942491-.6874863 0-1.3452505-.1331036-1.9732925-.3993107s-1.1686405-.6267497-1.6217957-1.0816279c-.4531551-.4548781-.8136977-.9959074-1.0816278-1.6230879-.2679302-.6271805-.4014645-1.2845139-.400603-1.9720002.0008616-.6874863.1343959-1.3448197.400603-1.9720002s.6267497-1.1682098 1.0816278-1.623088c.4548782-.4548781.9954768-.8154207 1.6217957-1.0816278.626319-.2662071 1.2840832-.3997414 1.9732925-.400603.6892093-.0008615 1.3465427.1326728 1.9720002.400603.6254574.2679301 1.166056.6284727 1.6217957 1.0816278.4557396.4531552.8162823.9941845 1.0816278 1.623088.2653456.6289035.3988799 1.2862369.400603 1.9720002 0 1.0579363-.2980831 2.0167988-.8942491 2.8765874l2.4733999 2.4734c.1783329.1783329.2674994.3950031.2674994.6500105z" fill="#fff" fill-rule="evenodd" transform="translate(-20 -24)"/></svg>