<svg xmlns="http://www.w3.org/2000/svg" width="512px" height="512px" viewBox="0 0 10 18">
    <path fill="#00a3c8" fill-rule="evenodd" d="M7.494 3.038c.557-.02 1.114-.005 1.673-.005h.23V.132c-.296-.03-.609-.073-.92-.088C7.904.018 7.332-.009 6.76.003c-.875.019-1.701.231-2.425.75-.828.596-1.283 1.433-1.456 2.42a8.37 8.37 0 0 0-.101 1.246c-.015.65-.002 1.3-.002 1.951v.245H0v3.24h2.76V18h3.372V9.868h2.75l.423-3.254c-.222 0-.419-.002-.618 0-.782.003-2.577 0-2.577 0s.007-1.607.027-2.303c.026-.954.592-1.245 1.357-1.273"/>
</svg>
