<svg xmlns="http://www.w3.org/2000/svg" width="18" height="19" viewBox="0 0 18 19">
    <g fill="#00a3c8" fill-rule="evenodd">
        <path d="M5.123 1.56a3.584 3.584 0 0 0-3.58 3.58v7.754a3.584 3.584 0 0 0 3.58 3.58h7.754a3.584 3.584 0 0 0 3.58-3.58V5.14a3.584 3.584 0 0 0-3.58-3.58H5.123zm7.754 16.457H5.123A5.129 5.129 0 0 1 0 12.894V5.14A5.129 5.129 0 0 1 5.123.017h7.754A5.129 5.129 0 0 1 18 5.14v7.754a5.129 5.129 0 0 1-5.123 5.123z"/>
        <path d="M9 6.006A2.997 2.997 0 0 0 6.006 9 2.997 2.997 0 0 0 9 11.994 2.997 2.997 0 0 0 11.994 9 2.997 2.997 0 0 0 9 6.006M9 13.5A4.505 4.505 0 0 1 4.5 9c0-2.481 2.019-4.5 4.5-4.5s4.5 2.019 4.5 4.5-2.019 4.5-4.5 4.5M14.4 4.5a.9.9 0 1 1-1.8 0 .9.9 0 0 1 1.8 0"/>
    </g>
</svg>
